# xmcd
#
# Track frame offsets:
#	150
#	14198
#	27389
#	41317
#	57168
#	71837
#	80875
#	95930
#	112718
#	125522
#
# Disc length: 1817 seconds
#
# Revision: 1
# Processed by: cddbd v1.5.2PL0 Copyright (c) Steve Scherf et al.
# Submitted via: audiograbber 1.83.01
#
DISCID=8c07170a
DTITLE=Crystal Lynn - Christmas With Crystal Lynn
DYEAR=2004
DGENRE=Country
TTITLE0=Jingle Bell John
TTITLE1=Christmas Time Of The Year
TTITLE2=There Is A Child
TTITLE3=Christmas Wishing
TTITLE4=My Christmas Love
TTITLE5=Christmas That We Used To Know
TTITLE6=Who Would Ever Want To Miss Christmas
TTITLE7=To You A King
TTITLE8=Let's Wrap The World In Christmas
TTITLE9=That's What Christmas Is
EXTD=
EXTT0=
EXTT1=
EXTT2=
EXTT3=
EXTT4=
EXTT5=
EXTT6=
EXTT7=
EXTT8=
EXTT9=
PLAYORDER=
